<svg version="1.2" xmlns="http://www.w3.org/2000/svg" viewBox="0 0 512 512" width="512" height="512">
	<style>
		.s0 { fill: #ffffff } 
		.s1 { fill: #000000 } 
	</style>
	<path id="Layer 2" class="s0" d="m9 314c0 0 59.41 30.56 114 5 54.59-25.56 41.55-91.88 36-107-5.55-15.12 2.38-147.68 115-148 112.62-0.32 131 120 131 120v2c0 0-23.68 11.23-29 21-5.32 9.77-7.07 30.89-6.91 35.24 0.15 4.35-2.87 34.31-4.09 40.76-1.22 6.45-7.86 65.62-40.95 109.26 0 0-19.83 23.92-21.9 25.74-1.43 1.25-32.45 46.5-138.15 30-105.7-16.5-136.72-79.33-130.66-77.66 6.07 1.66 38.07 23.6 38.07 23.6 0 0-60.32-65.97-62.41-79.94z"/>
	<path id="Layer 3" fill-rule="evenodd" class="s1" d="m307.5 166c-14.1 0-25.5-11.4-25.5-25.5 0-14.1 11.4-25.5 25.5-25.5 14.1 0 25.5 11.4 25.5 25.5 0 14.1-11.4 25.5-25.5 25.5z"/>
	<path id="Shape 1" fill-rule="evenodd" class="s0" d="m418 452c-26.54 0-48-21.46-48-48 0-26.54 21.46-48 48-48 26.54 0 48 21.46 48 48 0 26.54-21.46 48-48 48z"/>
</svg>