<svg version="1.2" xmlns="http://www.w3.org/2000/svg" viewBox="0 0 1280 720" width="1280" height="720">
	<style>
		.s0 { fill: #000000 } 
		.s1 { fill: #ffffff } 
	</style>
	<g id="Folder 1">
		<path id="Shape 1" class="s0" d="m162 661.22c-65.34 22.93-192.63-432.39-56.93-543.4 102.41-83.78 270.72-85.4 349.14 22.37 47.65 65.48 55.78 168.91 0 226.26-57.89 59.53-143.77-100.57-232.18-53.01-113.12 60.86-20.24 333.81-60.03 347.78z"/>
		<path id="Shape 2" fill-rule="evenodd" class="s1" d="m354.19 186.98c-23.16 0-41.89-18.73-41.89-41.89 0-23.16 18.73-41.88 41.89-41.88 23.16 0 41.88 18.72 41.88 41.88 0 23.16-18.72 41.89-41.88 41.89z"/>
		<path id="ik" class="s0" aria-label="ik"  d="m567.6 662.9q-19.5 0-30.4-11.3-10.1-11.8-10.1-32.9l-0.2-184q0-21.5 10-32.6 10.9-11.6 30.4-11.6 19.5-0.1 29.8 11.5 11 11.1 11 32.6l0.2 184.1q0.1 21-10.4 32.9-10.3 11.2-30.3 11.3zm-0.3-316.6q-22.2 0-34.8-10.4-11.6-10.9-11.7-30.2 0-19.8 11.6-30 12.6-10.8 34.8-10.8 22.5 0 34.1 10.7 12.3 10.2 12.3 30 0 19.3-12.2 30.2-11.6 10.5-34.1 10.5zm144.5 316.8q-19.6 0-30.5-10.5-10-10.8-10-30.8l-0.4-306.2q0-20.1 10-30.4 10.9-10.6 30.4-10.6 19.5 0 29.9 10.5 10.9 10.4 11 30.4l0.2 188.2h1l77.6-86.8q11.9-13.4 21.6-20 10-7.1 26.8-7.2 16.9 0 25.4 8.7 9.4 8.4 9.2 21 0.7 12-10.1 24.4l-82.4 91.7v-30.7l91.4 105.5q10.7 12.6 8.8 25.3-0.9 11.8-11.2 19.9-9.4 7.4-24.4 7.4-18.3 0-29.4-6.8-10.5-6.9-22.3-21.2l-80.9-90.4h-1.1l0.1 77.2q0 41.3-40.7 41.4z"/>
		<path id="Shape 3" fill-rule="evenodd" class="s0" d="m1093.5 670.5c-83.21-2.86-159.41-76.69-144-144 17.77-77.62 64.38-142.64 144-144 57.88-0.99 120.52 63.3 144 144 22.25 76.46-64.41 146.73-144 144z"/>
		<path id="Shape 3 copy" fill-rule="evenodd" class="s1" d="m1078.03 580.08c-39.95-1.37-76.54-36.83-69.14-69.14 8.53-37.28 30.91-68.49 69.14-69.15 27.8-0.47 57.87 30.4 69.14 69.15 10.69 36.71-30.92 70.45-69.14 69.14z"/>
	</g>
</svg>